<?xml version="1.0" encoding="UTF-8"?> <svg xmlns="http://www.w3.org/2000/svg" width="832" height="180" viewBox="0 0 832 180" fill="none"> <rect x="134" y="180" width="30" height="180" rx="10" transform="rotate(-180 134 180)" fill="url(#paint0_linear_812_207)"></rect> <rect x="82" y="79" width="30" height="54" rx="10" transform="rotate(-180 82 79)" fill="url(#paint1_linear_812_207)"></rect> <rect x="30" y="127" width="30" height="74" rx="10" transform="rotate(-180 30 127)" fill="url(#paint2_linear_812_207)"></rect> <rect x="82" y="155" width="30" height="54" rx="10" transform="rotate(-180 82 155)" fill="url(#paint3_linear_812_207)"></rect> <path fill-rule="evenodd" clip-rule="evenodd" d="M668.529 33.2207C666.872 33.2207 665.529 34.5638 665.529 36.2207V135.501C665.529 137.158 666.872 138.501 668.529 138.501H679.001C680.658 138.501 682.001 137.158 682.001 135.501V118.375L692.994 107.277L716.061 137.327C716.629 138.067 717.508 138.501 718.441 138.501H730.953C732.092 138.501 733.134 137.855 733.64 136.834C734.147 135.814 734.031 134.594 733.342 133.686L704.443 95.6273L732.146 67.2857C732.99 66.4225 733.234 65.1375 732.766 64.0249C732.298 62.9123 731.208 62.1887 730.001 62.1887H716.945C716.127 62.1887 715.345 62.5224 714.779 63.1125L682.001 97.3008V36.2207C682.001 34.5638 680.658 33.2207 679.001 33.2207H668.529ZM782.637 33.2207C780.98 33.2207 779.637 34.5638 779.637 36.2207V135.501C779.637 137.158 780.98 138.501 782.637 138.501H793.109C794.766 138.501 796.109 137.158 796.109 135.501V36.2207C796.109 34.5638 794.766 33.2207 793.109 33.2207H782.637ZM818.364 33.2207C816.707 33.2207 815.364 34.5638 815.364 36.2207V135.501C815.364 137.158 816.707 138.501 818.364 138.501H828.836C830.493 138.501 831.836 137.158 831.836 135.501V36.2207C831.836 34.5638 830.493 33.2207 828.836 33.2207H818.364ZM746.231 35.2607C744.574 35.2607 743.231 36.6038 743.231 38.2607V49.8207C743.231 51.4776 744.574 52.8207 746.231 52.8207H758.199C759.855 52.8207 761.199 51.4776 761.199 49.8207V38.2607C761.199 36.6038 759.855 35.2607 758.199 35.2607H746.231ZM192.969 37.3007C191.312 37.3007 189.969 38.6438 189.969 40.3007V135.501C189.969 137.158 191.312 138.501 192.969 138.501H203.713C205.37 138.501 206.713 137.158 206.713 135.501V95.6607H255.657V135.501C255.657 137.158 257 138.501 258.657 138.501H269.401C271.058 138.501 272.401 137.158 272.401 135.501V40.3007C272.401 38.6438 271.058 37.3007 269.401 37.3007H258.657C257 37.3007 255.657 38.6438 255.657 40.3007V79.5967H206.713V40.3007C206.713 38.6438 205.37 37.3007 203.713 37.3007H192.969ZM412.28 60.6927C401.788 60.6927 394.09 65.0435 388.352 70.8825V65.1887C388.352 63.5318 387.009 62.1887 385.352 62.1887H374.88C373.224 62.1887 371.88 63.5318 371.88 65.1887V157.261C371.88 158.918 373.224 160.261 374.88 160.261H385.352C387.009 160.261 388.352 158.918 388.352 157.261V130.271C394.034 135.807 401.795 139.997 412.28 139.997C430.937 139.997 448.872 125.054 448.872 100.413V100.141C448.872 75.3332 430.77 60.6927 412.28 60.6927ZM494.569 60.6927C473.19 60.6927 457.841 78.6442 457.841 100.413C457.841 123.928 474.923 140.133 495.929 140.133C510.268 140.133 519.605 134.337 527.131 125.943C527.662 125.351 527.936 124.571 527.892 123.777C527.849 122.982 527.491 122.237 526.899 121.706L520.371 115.858C519.164 114.777 517.317 114.85 516.199 116.021C510.92 121.552 504.862 125.021 496.201 125.021C486.28 125.021 477.433 118.823 474.959 107.629H527.209C528.769 107.629 530.069 106.433 530.199 104.878C530.345 103.122 530.345 101.935 530.345 100.961V100.957C530.345 90.0673 527.194 80.0293 521.067 72.6556C514.892 65.223 505.846 60.6927 494.569 60.6927ZM584.968 60.9672C574.156 60.5259 565.302 65.4104 559.149 72.9194V65.1887C559.149 63.5318 557.806 62.1887 556.149 62.1887H545.677C544.02 62.1887 542.677 63.5318 542.677 65.1887V135.501C542.677 137.158 544.02 138.501 545.677 138.501H556.149C557.806 138.501 559.149 137.158 559.149 135.501V107.485C559.149 97.469 562.093 90.1991 566.519 85.4604C570.938 80.7283 577.081 78.2527 584.029 78.2527H584.845C586.502 78.2527 587.845 76.9096 587.845 75.2527V63.9647C587.845 62.3554 586.576 61.0328 584.968 60.9672ZM622.283 60.9647C614.787 60.9647 608.085 63.1332 603.199 67.179C598.268 71.2623 595.346 77.1383 595.346 84.0927V84.3647C595.346 92.0207 599.082 97.0627 604.179 100.461C609.073 103.723 615.352 105.564 620.783 107.107L620.795 107.11C625.478 108.418 629.487 109.656 632.329 111.316C635.069 112.917 636.147 114.546 636.147 116.597V116.869C636.147 119.264 635.11 121.186 633.233 122.595C631.287 124.054 628.328 125.021 624.595 125.021C617.09 125.021 609.274 122.062 602.051 116.645C601.403 116.159 600.586 115.956 599.787 116.081C598.987 116.206 598.272 116.649 597.803 117.309L592.499 124.789C591.584 126.08 591.829 127.859 593.058 128.855C601.479 135.679 613.297 139.861 624.051 139.861C631.578 139.861 638.541 137.78 643.69 133.661C648.905 129.489 652.075 123.358 652.075 115.781V115.509C652.075 108.036 648.524 102.975 643.604 99.4799C638.866 96.1144 632.767 94.1293 627.364 92.5084L627.361 92.5072L627.346 92.5028C622.555 91.0447 618.388 89.7765 615.378 88.1261C612.394 86.4904 611.411 84.9704 611.411 83.2767V83.0047C611.411 81.0726 612.255 79.3782 613.929 78.0889C615.652 76.7626 618.362 75.8047 622.01 75.8047C628.101 75.8047 635.024 78.1418 641.191 82.1248C641.873 82.5651 642.704 82.7104 643.494 82.5276C644.285 82.3448 644.968 81.8495 645.387 81.1547L650.147 73.2667C650.979 71.8888 650.575 70.1002 649.232 69.2133C641.56 64.1469 631.469 60.9647 622.283 60.9647ZM287.457 62.1887C286.436 62.1887 285.485 62.7077 284.933 63.5664C284.381 64.425 284.304 65.5054 284.728 66.4341L316.132 135.256C314.289 139.363 312.618 141.838 310.972 143.314C309.313 144.8 307.515 145.421 305.001 145.421C300.979 145.421 298.327 144.714 295.369 143.175C294.628 142.79 293.759 142.731 292.973 143.013C292.186 143.295 291.553 143.892 291.225 144.66L287.689 152.956C287.062 154.428 287.699 156.132 289.138 156.831C294.247 159.313 299.045 160.669 305.409 160.669C311.271 160.669 316.346 159.181 320.759 155.502C325.073 151.908 328.501 146.429 331.575 138.954L331.58 138.942L361.092 66.3181C361.468 65.3932 361.359 64.3419 360.802 63.5136C360.244 62.6854 359.311 62.1887 358.313 62.1887H347.161C345.92 62.1887 344.807 62.9526 344.361 64.1105L324.412 115.906L301.767 63.9893C301.29 62.8957 300.21 62.1887 299.017 62.1887H287.457ZM746.911 62.1887C745.254 62.1887 743.911 63.5318 743.911 65.1887V135.501C743.911 137.158 745.254 138.501 746.911 138.501H757.383C759.039 138.501 760.383 137.158 760.383 135.501V65.1887C760.383 63.5318 759.039 62.1887 757.383 62.1887H746.911ZM494.297 75.5327C485.06 75.5327 477.345 82.5251 474.979 93.1967H513.28C512.392 88.6038 510.6 84.5588 507.988 81.5297C504.833 77.8708 500.358 75.5327 494.297 75.5327ZM387.944 100.141C387.944 85.7292 398.998 76.0767 410.376 76.0767C421.924 76.0767 432.128 85.2154 432.128 100.277V100.549C432.128 108.375 429.574 114.36 425.696 118.37C421.812 122.387 416.421 124.613 410.376 124.613C398.998 124.613 387.944 115.096 387.944 100.413V100.141Z" fill="black"></path> <defs> <linearGradient id="paint0_linear_812_207" x1="143.611" y1="318.265" x2="90.2151" y2="269.27" gradientUnits="userSpaceOnUse"> <stop stop-color="#564DE2"></stop> <stop offset="1" stop-color="#68AEFF"></stop> </linearGradient> <linearGradient id="paint1_linear_812_207" x1="112" y1="160.407" x2="65.0324" y2="117.658" gradientUnits="userSpaceOnUse"> <stop stop-color="#6C63FF"></stop> <stop offset="1" stop-color="#7AB7FE"></stop> </linearGradient> <linearGradient id="paint2_linear_812_207" x1="38.2635" y1="113.554" x2="87.5547" y2="162.851" gradientUnits="userSpaceOnUse"> <stop stop-color="#4BFFDF"></stop> <stop offset="1" stop-color="#7AB7FE"></stop> </linearGradient> <linearGradient id="paint3_linear_812_207" x1="87.2096" y1="123.803" x2="138.08" y2="177.292" gradientUnits="userSpaceOnUse"> <stop stop-color="#4BFFDF"></stop> <stop offset="1" stop-color="#4D9FFF"></stop> </linearGradient> </defs> </svg> 